<svg width="32" height="32" viewBox="0 0 32 32" fill="none" xmlns="http://www.w3.org/2000/svg">
<mask id="mask0_6_92" style="mask-type:alpha" maskUnits="userSpaceOnUse" x="0" y="0" width="32" height="32">
<rect width="32" height="32" fill="#D9D9D9"/>
</mask>
<g mask="url(#mask0_6_92)">
<path d="M14.6666 17.3333H17.3333V9.33332H14.6666V17.3333ZM16 22.6667C16.3777 22.6667 16.6946 22.5387 16.9506 22.2827C17.2057 22.0275 17.3333 21.7111 17.3333 21.3333C17.3333 20.9555 17.2057 20.6387 16.9506 20.3827C16.6946 20.1275 16.3777 20 16 20C15.6222 20 15.3057 20.1275 15.0506 20.3827C14.7946 20.6387 14.6666 20.9555 14.6666 21.3333C14.6666 21.7111 14.7946 22.0275 15.0506 22.2827C15.3057 22.5387 15.6222 22.6667 16 22.6667ZM16 29.3333C14.1555 29.3333 12.4222 28.9831 10.8 28.2827C9.17774 27.5831 7.76663 26.6333 6.56663 25.4333C5.36663 24.2333 4.41685 22.8222 3.71729 21.2C3.01685 19.5778 2.66663 17.8444 2.66663 16C2.66663 14.1555 3.01685 12.4222 3.71729 10.8C4.41685 9.17777 5.36663 7.76666 6.56663 6.56666C7.76663 5.36666 9.17774 4.41643 10.8 3.71599C12.4222 3.01643 14.1555 2.66666 16 2.66666C17.8444 2.66666 19.5777 3.01643 21.2 3.71599C22.8222 4.41643 24.2333 5.36666 25.4333 6.56666C26.6333 7.76666 27.5831 9.17777 28.2826 10.8C28.9831 12.4222 29.3333 14.1555 29.3333 16C29.3333 17.8444 28.9831 19.5778 28.2826 21.2C27.5831 22.8222 26.6333 24.2333 25.4333 25.4333C24.2333 26.6333 22.8222 27.5831 21.2 28.2827C19.5777 28.9831 17.8444 29.3333 16 29.3333ZM16 26.6667C18.9555 26.6667 21.4724 25.628 23.5506 23.5507C25.628 21.4724 26.6666 18.9555 26.6666 16C26.6666 13.0444 25.628 10.5275 23.5506 8.44932C21.4724 6.37199 18.9555 5.33332 16 5.33332C13.0444 5.33332 10.528 6.37199 8.45063 8.44932C6.3724 10.5275 5.33329 13.0444 5.33329 16C5.33329 18.9555 6.3724 21.4724 8.45063 23.5507C10.528 25.628 13.0444 26.6667 16 26.6667Z" fill="white"/>
</g>
</svg>
