<svg width="40" height="40" viewBox="0 0 40 40" fill="none" xmlns="http://www.w3.org/2000/svg">
<path opacity="0.4" d="M11.832 40.0001H28.168C35.246 40.0001 40 35.4481 40 28.6701V11.3301C40 4.55209 35.246 9.15527e-05 28.168 9.15527e-05H11.832C4.756 9.15527e-05 0 4.55409 0 11.3321L0 28.6701C0 35.4481 4.756 40.0001 11.832 40.0001Z" fill="#215172"/>
<path d="M21.7109 28.5588L29.2409 21.0628C29.8069 20.4988 29.8069 19.5008 29.2409 18.9348L21.7109 11.4388C21.1229 10.8548 20.1729 10.8568 19.5889 11.4448C19.0049 12.0328 19.0049 12.9808 19.5929 13.5668L24.5469 18.5008H11.8369C11.0069 18.5008 10.3369 19.1728 10.3369 20.0008C10.3369 20.8288 11.0069 21.5008 11.8369 21.5008H24.5469L19.5929 26.4328C19.2989 26.7268 19.1529 27.1108 19.1529 27.4968C19.1529 27.8788 19.2989 28.2628 19.5889 28.5548C20.1729 29.1408 21.1229 29.1428 21.7109 28.5588Z" fill="#215172"/>
</svg>
