<svg width="32" height="32" viewBox="0 0 32 32" fill="none" xmlns="http://www.w3.org/2000/svg">
<mask id="mask0_6_89" style="mask-type:alpha" maskUnits="userSpaceOnUse" x="0" y="0" width="32" height="32">
<rect width="32" height="32" fill="#D9D9D9"/>
</mask>
<g mask="url(#mask0_6_89)">
<path d="M6.66667 28C5.93333 28 5.30533 27.7391 4.78267 27.2173C4.26089 26.6947 4 26.0667 4 25.3333C4 24.6 4.26089 23.972 4.78267 23.4493C5.30533 22.9276 5.93333 22.6667 6.66667 22.6667C7.4 22.6667 8.02756 22.9276 8.54933 23.4493C9.072 23.972 9.33333 24.6 9.33333 25.3333C9.33333 26.0667 9.072 26.6947 8.54933 27.2173C8.02756 27.7391 7.4 28 6.66667 28ZM22.6667 28C22.6667 25.4222 22.1778 23.0053 21.2 20.7493C20.2222 18.4942 18.8836 16.5165 17.184 14.816C15.4836 13.1165 13.5058 11.7778 11.2507 10.8C8.99467 9.82223 6.57778 9.33334 4 9.33334V5.33334C7.13333 5.33334 10.0778 5.92801 12.8333 7.11734C15.5889 8.30579 17.9889 9.92223 20.0333 11.9667C22.0778 14.0111 23.6947 16.4111 24.884 19.1667C26.0724 21.9222 26.6667 24.8667 26.6667 28H22.6667ZM14.6667 28C14.6667 25.0445 13.6276 22.528 11.5493 20.4507C9.472 18.3725 6.95556 17.3333 4 17.3333V13.3333C6.04444 13.3333 7.95556 13.7169 9.73333 14.484C11.5111 15.2502 13.0613 16.2942 14.384 17.616C15.7058 18.9387 16.7498 20.4889 17.516 22.2667C18.2831 24.0445 18.6667 25.9556 18.6667 28H14.6667Z" fill="white"/>
</g>
</svg>
