<svg width="50" height="53" viewBox="0 0 70 73" fill="none" xmlns="http://www.w3.org/2000/svg">
<path d="M59.7917 33.4583H55.4167V21.2917C55.4167 17.9458 52.7917 15.2083 49.5833 15.2083H37.9167V10.6458C37.9167 6.44833 34.65 3.04166 30.625 3.04166C26.6 3.04166 23.3333 6.44833 23.3333 10.6458V15.2083H11.6667C8.45834 15.2083 5.86251 17.9458 5.86251 21.2917V32.85H10.2083C14.5542 32.85 18.0833 36.5304 18.0833 41.0625C18.0833 45.5946 14.5542 49.275 10.2083 49.275H5.83334V60.8333C5.83334 64.1792 8.45834 66.9167 11.6667 66.9167H22.75V62.3542C22.75 57.8221 26.2792 54.1417 30.625 54.1417C34.9708 54.1417 38.5 57.8221 38.5 62.3542V66.9167H49.5833C52.7917 66.9167 55.4167 64.1792 55.4167 60.8333V48.6667H59.7917C63.8167 48.6667 67.0833 45.26 67.0833 41.0625C67.0833 36.865 63.8167 33.4583 59.7917 33.4583Z" fill="black"/>
</svg>
