<svg width="32" height="32" viewBox="0 0 32 32" fill="none" xmlns="http://www.w3.org/2000/svg">
<mask id="mask0_6_86" style="mask-type:alpha" maskUnits="userSpaceOnUse" x="0" y="0" width="32" height="32">
<rect width="32" height="32" fill="#D9D9D9"/>
</mask>
<g mask="url(#mask0_6_86)">
<path d="M17.6666 15.7333H19.6666C19.6666 15.0889 19.7333 14.6164 19.8666 14.316C20 14.0164 20.3111 13.6222 20.8 13.1333C21.4666 12.4667 21.9111 11.9275 22.1333 11.516C22.3555 11.1053 22.4666 10.6222 22.4666 10.0667C22.4666 9.06666 22.1164 8.25021 21.416 7.61732C20.7164 6.98354 19.8 6.66666 18.6666 6.66666C17.7555 6.66666 16.9613 6.92221 16.284 7.43332C15.6057 7.94443 15.1333 8.62221 14.8666 9.46666L16.6666 10.2C16.8666 9.64443 17.1391 9.22754 17.484 8.94932C17.828 8.67199 18.2222 8.53332 18.6666 8.53332C19.2 8.53332 19.6333 8.6831 19.9666 8.98266C20.3 9.2831 20.4666 9.68888 20.4666 10.2C20.4666 10.5111 20.3777 10.8053 20.2 11.0827C20.0222 11.3609 19.7111 11.7111 19.2666 12.1333C18.5333 12.7778 18.0835 13.2831 17.9173 13.6493C17.7502 14.0164 17.6666 14.7111 17.6666 15.7333ZM18.6666 20C19.0444 20 19.3724 19.8613 19.6506 19.584C19.928 19.3058 20.0666 18.9778 20.0666 18.6C20.0666 18.2222 19.928 17.8942 19.6506 17.616C19.3724 17.3387 19.0444 17.2 18.6666 17.2C18.2888 17.2 17.9613 17.3387 17.684 17.616C17.4057 17.8942 17.2666 18.2222 17.2666 18.6C17.2666 18.9778 17.4057 19.3058 17.684 19.584C17.9613 19.8613 18.2888 20 18.6666 20ZM10.6666 24C9.93329 24 9.30574 23.7391 8.78396 23.2173C8.26129 22.6947 7.99996 22.0667 7.99996 21.3333V5.33332C7.99996 4.59999 8.26129 3.97199 8.78396 3.44932C9.30574 2.92755 9.93329 2.66666 10.6666 2.66666H26.6666C27.4 2.66666 28.028 2.92755 28.5506 3.44932C29.0724 3.97199 29.3333 4.59999 29.3333 5.33332V21.3333C29.3333 22.0667 29.0724 22.6947 28.5506 23.2173C28.028 23.7391 27.4 24 26.6666 24H10.6666ZM10.6666 21.3333H26.6666V5.33332H10.6666V21.3333ZM5.33329 29.3333C4.59996 29.3333 3.9724 29.0724 3.45063 28.5507C2.92796 28.028 2.66663 27.4 2.66663 26.6667V7.99999H5.33329V26.6667H24V29.3333H5.33329Z" fill="#215172"/>
</g>
</svg>
