<svg width="96" height="96" viewBox="0 0 96 96" fill="none" xmlns="http://www.w3.org/2000/svg">
<path d="M74.8 49.6C73.68 48.96 72.52 48.44 71.36 48C72.52 47.56 73.68 47.04 74.8 46.4C82.48 41.96 86.76 33.92 86.8 25.64C79.64 21.52 70.52 21.2 62.8 25.64C61.68 26.28 60.64 27.04 59.68 27.8C59.88 26.56 60 25.28 60 24C60 15.12 55.16 7.39999 48 3.23999C40.84 7.39999 36 15.12 36 24C36 25.28 36.12 26.56 36.32 27.8C35.36 27 34.32 26.24 33.2 25.6C25.52 21.16 16.4 21.48 9.20001 25.6C9.20001 33.88 13.48 41.92 21.2 46.36C22.32 47 23.48 47.52 24.64 47.96C23.48 48.4 22.32 48.92 21.2 49.56C13.52 54 9.24001 62.04 9.20001 70.32C16.36 74.44 25.48 74.76 33.2 70.32C34.32 69.68 35.36 68.92 36.32 68.16C36.12 69.44 36 70.72 36 72C36 80.88 40.84 88.6 48 92.76C55.16 88.6 60 80.88 60 72C60 70.72 59.88 69.44 59.68 68.2C60.64 69 61.68 69.72 62.8 70.36C70.48 74.8 79.6 74.48 86.8 70.36C86.76 62.08 82.48 54.04 74.8 49.6V49.6ZM48 64C39.16 64 32 56.84 32 48C32 39.16 39.16 32 48 32C56.84 32 64 39.16 64 48C64 56.84 56.84 64 48 64Z" fill="black"/>
</svg>
