<svg width="24" height="25" viewBox="0 0 24 25" fill="none" xmlns="http://www.w3.org/2000/svg">
<path fill-rule="evenodd" clip-rule="evenodd" d="M11.5463 1C17.3616 1 22.0918 5.73021 22.0918 11.5455C22.0918 14.2891 21.0389 16.7915 19.3159 18.6695L22.7063 22.0528C23.0236 22.3701 23.0247 22.8834 22.7074 23.2007C22.5493 23.3609 22.3403 23.44 22.1323 23.44C21.9255 23.44 21.7176 23.3609 21.5584 23.2028L18.1271 19.7811C16.3221 21.2267 14.0335 22.0921 11.5463 22.0921C5.73105 22.0921 0.999756 17.3608 0.999756 11.5455C0.999756 5.73021 5.73105 1 11.5463 1ZM11.5463 2.62438C6.62662 2.62438 2.62414 6.62578 2.62414 11.5455C2.62414 16.4652 6.62662 20.4677 11.5463 20.4677C16.465 20.4677 20.4675 16.4652 20.4675 11.5455C20.4675 6.62578 16.465 2.62438 11.5463 2.62438Z" fill="#215172" stroke="#215172" stroke-width="2"/>
</svg>
