<svg width="28" height="28" viewBox="0 0 28 28" fill="none" xmlns="http://www.w3.org/2000/svg">
<path d="M10.3333 27.3333L9.79998 23.0667C9.51109 22.9555 9.23909 22.8222 8.98398 22.6667C8.72797 22.5111 8.47775 22.3444 8.23331 22.1667L4.26664 23.8333L0.599976 17.5L4.03331 14.9C4.01109 14.7444 3.99998 14.5942 3.99998 14.4493C3.99998 14.3053 3.99998 14.1555 3.99998 14C3.99998 13.8444 3.99998 13.6942 3.99998 13.5493C3.99998 13.4053 4.01109 13.2555 4.03331 13.1L0.599976 10.5L4.26664 4.16666L8.23331 5.83332C8.47775 5.65555 8.73331 5.48888 8.99998 5.33332C9.26664 5.17777 9.53331 5.04443 9.79998 4.93332L10.3333 0.666656H17.6666L18.2 4.93332C18.4889 5.04443 18.7613 5.17777 19.0173 5.33332C19.2724 5.48888 19.5222 5.65555 19.7666 5.83332L23.7333 4.16666L27.4 10.5L23.9666 13.1C23.9889 13.2555 24 13.4053 24 13.5493C24 13.6942 24 13.8444 24 14C24 14.1555 24 14.3053 24 14.4493C24 14.5942 23.9778 14.7444 23.9333 14.9L27.3666 17.5L23.7 23.8333L19.7666 22.1667C19.5222 22.3444 19.2666 22.5111 19 22.6667C18.7333 22.8222 18.4666 22.9555 18.2 23.0667L17.6666 27.3333H10.3333ZM14.0666 18.6667C15.3555 18.6667 16.4555 18.2111 17.3666 17.3C18.2778 16.3889 18.7333 15.2889 18.7333 14C18.7333 12.7111 18.2778 11.6111 17.3666 10.7C16.4555 9.78888 15.3555 9.33332 14.0666 9.33332C12.7555 9.33332 11.6498 9.78888 10.7493 10.7C9.84975 11.6111 9.39998 12.7111 9.39998 14C9.39998 15.2889 9.84975 16.3889 10.7493 17.3C11.6498 18.2111 12.7555 18.6667 14.0666 18.6667ZM14.0666 16C13.5111 16 13.0391 15.8053 12.6506 15.416C12.2613 15.0275 12.0666 14.5555 12.0666 14C12.0666 13.4444 12.2613 12.9724 12.6506 12.584C13.0391 12.1947 13.5111 12 14.0666 12C14.6222 12 15.0946 12.1947 15.484 12.584C15.8724 12.9724 16.0666 13.4444 16.0666 14C16.0666 14.5555 15.8724 15.0275 15.484 15.416C15.0946 15.8053 14.6222 16 14.0666 16ZM12.6666 24.6667H15.3L15.7666 21.1333C16.4555 20.9555 17.0946 20.6942 17.684 20.3493C18.2724 20.0053 18.8111 19.5889 19.3 19.1L22.6 20.4667L23.9 18.2L21.0333 16.0333C21.1444 15.7222 21.2222 15.3942 21.2666 15.0493C21.3111 14.7053 21.3333 14.3555 21.3333 14C21.3333 13.6444 21.3111 13.2942 21.2666 12.9493C21.2222 12.6053 21.1444 12.2778 21.0333 11.9667L23.9 9.79999L22.6 7.53332L19.3 8.93332C18.8111 8.42221 18.2724 7.99421 17.684 7.64932C17.0946 7.30532 16.4555 7.04443 15.7666 6.86666L15.3333 3.33332H12.7L12.2333 6.86666C11.5444 7.04443 10.9058 7.30532 10.3173 7.64932C9.72797 7.99421 9.18886 8.4111 8.69998 8.89999L5.39998 7.53332L4.09998 9.79999L6.96664 11.9333C6.85553 12.2667 6.77775 12.6 6.73331 12.9333C6.68886 13.2667 6.66664 13.6222 6.66664 14C6.66664 14.3555 6.68886 14.7 6.73331 15.0333C6.77775 15.3667 6.85553 15.7 6.96664 16.0333L4.09998 18.2L5.39998 20.4667L8.69998 19.0667C9.18886 19.5778 9.72797 20.0053 10.3173 20.3493C10.9058 20.6942 11.5444 20.9555 12.2333 21.1333L12.6666 24.6667Z" fill="white"/>
</svg>
