<svg width="70" height="70" viewBox="0 0 70 70" fill="none" xmlns="http://www.w3.org/2000/svg">
<mask id="mask0_4_109" style="mask-type:alpha" maskUnits="userSpaceOnUse" x="0" y="0" width="70" height="70">
<rect width="70" height="70" fill="#D9D9D9"/>
</mask>
<g mask="url(#mask0_4_109)">
<path d="M18.9584 58.3328C14.5348 58.3328 10.7558 56.8016 7.62133 53.7391C4.48494 50.6766 2.91675 46.9335 2.91675 42.5099C2.91675 38.7182 4.05911 35.3398 6.34383 32.3745C8.62855 29.4092 11.6181 27.5134 15.3126 26.687C16.5279 22.2147 18.9584 18.5932 22.6042 15.8224C26.2501 13.0516 30.382 11.6661 35.0001 11.6661C40.6876 11.6661 45.5117 13.6466 49.4726 17.6074C53.4353 21.5702 55.4167 26.3953 55.4167 32.0828C58.7709 32.4717 61.5544 33.9174 63.7671 36.4199C65.978 38.9243 67.0834 41.8536 67.0834 45.2078C67.0834 48.8536 65.8078 51.9531 63.2567 54.5061C60.7037 57.0573 57.6042 58.3328 53.9584 58.3328H37.9167C36.3126 58.3328 34.9398 57.7621 33.7984 56.6207C32.6551 55.4774 32.0834 54.1036 32.0834 52.4995V37.4786L27.4167 41.9995L23.3334 37.9161L35.0001 26.2495L46.6667 37.9161L42.5834 41.9995L37.9167 37.4786V52.4995H53.9584C56 52.4995 57.7257 51.7946 59.1355 50.3849C60.5452 48.9752 61.25 47.2495 61.25 45.2078C61.25 43.1661 60.5452 41.4404 59.1355 40.0307C57.7257 38.621 56 37.9161 53.9584 37.9161H49.5834V32.0828C49.5834 28.0481 48.162 24.6084 45.3192 21.7636C42.4745 18.9209 39.0348 17.4995 35.0001 17.4995C30.9653 17.4995 27.5266 18.9209 24.6838 21.7636C21.8391 24.6084 20.4167 28.0481 20.4167 32.0828H18.9584C16.139 32.0828 13.7327 33.0793 11.7397 35.0724C9.7466 37.0654 8.75008 39.4717 8.75008 42.2911C8.75008 45.1106 9.7466 47.5168 11.7397 49.5099C13.7327 51.5029 16.139 52.4995 18.9584 52.4995H26.2501V58.3328H18.9584Z" fill="#1C1B1F"/>
</g>
</svg>
