<svg width="32" height="32" viewBox="0 0 32 32" fill="none" xmlns="http://www.w3.org/2000/svg">
                                    <mask id="mask0_6_83" style="mask-type:alpha" maskUnits="userSpaceOnUse" x="0" y="0" width="32" height="32">
                                    <rect width="32" height="32" fill="#D9D9D9"/>
                                    </mask>
                                    <g mask="url(#mask0_6_83)">
                                    <path d="M26.6666 29.3334H5.33329C4.59996 29.3334 3.9724 29.0725 3.45063 28.5507C2.92796 28.028 2.66663 27.4 2.66663 26.6667V5.33335C2.66663 4.60002 2.92796 3.97202 3.45063 3.44935C3.9724 2.92758 4.59996 2.66669 5.33329 2.66669H26.6666C27.4 2.66669 28.028 2.92758 28.5506 3.44935C29.0724 3.97202 29.3333 4.60002 29.3333 5.33335V26.6667C29.3333 27.4 29.0724 28.028 28.5506 28.5507C28.028 29.0725 27.4 29.3334 26.6666 29.3334ZM14.6666 14.6667V5.33335H5.33329V14.6667H14.6666ZM14.6666 17.3334H5.33329V26.6667H14.6666V17.3334ZM17.3333 17.3334V26.6667H26.6666V17.3334H17.3333ZM17.3333 14.6667H26.6666V5.33335H17.3333V14.6667Z" fill="white"/>
                                    </g>
</svg>